<mxfile host="Electron" modified="2024-09-19T06:27:26.281Z" agent="Mozilla/5.0 (Windows NT 10.0; Win64; x64) AppleWebKit/537.36 (KHTML, like Gecko) draw.io/21.7.5 Chrome/114.0.5735.289 Electron/25.8.1 Safari/537.36" etag="D-JWy_aL1n3BGP9hJ8e-" version="21.7.5" type="device">
  <diagram name="PÃ¡gina-1" id="exiB_s3S-dkVnW7vW77O">
    <mxGraphModel dx="1098" dy="1989" grid="1" gridSize="10" guides="1" tooltips="1" connect="1" arrows="1" fold="1" page="1" pageScale="1" pageWidth="827" pageHeight="1169" math="0" shadow="0">
      <root>
        <mxCell id="0" />
        <mxCell id="1" parent="0" />
        <mxCell id="mmBqSO9s15qjNC5HCU1k-1" style="edgeStyle=orthogonalEdgeStyle;rounded=0;orthogonalLoop=1;jettySize=auto;html=1;" edge="1" parent="1" source="mmBqSO9s15qjNC5HCU1k-2" target="mmBqSO9s15qjNC5HCU1k-4">
          <mxGeometry relative="1" as="geometry" />
        </mxCell>
        <mxCell id="mmBqSO9s15qjNC5HCU1k-2" value="Inicio Act2CondT1" style="rounded=1;whiteSpace=wrap;html=1;" vertex="1" parent="1">
          <mxGeometry x="354" y="-1040" width="120" height="60" as="geometry" />
        </mxCell>
        <mxCell id="mmBqSO9s15qjNC5HCU1k-3" style="edgeStyle=orthogonalEdgeStyle;rounded=0;orthogonalLoop=1;jettySize=auto;html=1;entryX=0.5;entryY=0;entryDx=0;entryDy=0;" edge="1" parent="1" source="mmBqSO9s15qjNC5HCU1k-4" target="mmBqSO9s15qjNC5HCU1k-7">
          <mxGeometry relative="1" as="geometry" />
        </mxCell>
        <mxCell id="mmBqSO9s15qjNC5HCU1k-4" value="Leer numero" style="shape=parallelogram;perimeter=parallelogramPerimeter;whiteSpace=wrap;html=1;fixedSize=1;" vertex="1" parent="1">
          <mxGeometry x="354" y="-920" width="120" height="60" as="geometry" />
        </mxCell>
        <mxCell id="mmBqSO9s15qjNC5HCU1k-16" style="edgeStyle=orthogonalEdgeStyle;rounded=0;orthogonalLoop=1;jettySize=auto;html=1;" edge="1" parent="1" source="mmBqSO9s15qjNC5HCU1k-7" target="mmBqSO9s15qjNC5HCU1k-11">
          <mxGeometry relative="1" as="geometry" />
        </mxCell>
        <mxCell id="mmBqSO9s15qjNC5HCU1k-18" style="edgeStyle=orthogonalEdgeStyle;rounded=0;orthogonalLoop=1;jettySize=auto;html=1;entryX=0;entryY=0.5;entryDx=0;entryDy=0;" edge="1" parent="1" source="mmBqSO9s15qjNC5HCU1k-7" target="mmBqSO9s15qjNC5HCU1k-17">
          <mxGeometry relative="1" as="geometry" />
        </mxCell>
        <mxCell id="mmBqSO9s15qjNC5HCU1k-7" value="numero &amp;gt; 0?" style="rhombus;whiteSpace=wrap;html=1;" vertex="1" parent="1">
          <mxGeometry x="359" y="-810" width="110" height="80" as="geometry" />
        </mxCell>
        <mxCell id="mmBqSO9s15qjNC5HCU1k-9" value="Escribir &quot;negativo&quot;" style="shape=parallelogram;perimeter=parallelogramPerimeter;whiteSpace=wrap;html=1;fixedSize=1;" vertex="1" parent="1">
          <mxGeometry x="680" y="-800" width="120" height="60" as="geometry" />
        </mxCell>
        <mxCell id="mmBqSO9s15qjNC5HCU1k-11" value="Escribir &quot;positivo&quot;" style="shape=parallelogram;perimeter=parallelogramPerimeter;whiteSpace=wrap;html=1;fixedSize=1;" vertex="1" parent="1">
          <mxGeometry x="150" y="-800" width="120" height="60" as="geometry" />
        </mxCell>
        <mxCell id="mmBqSO9s15qjNC5HCU1k-12" value="Fin ActCondT1" style="rounded=1;whiteSpace=wrap;html=1;" vertex="1" parent="1">
          <mxGeometry x="354" y="-510" width="120" height="60" as="geometry" />
        </mxCell>
        <mxCell id="mmBqSO9s15qjNC5HCU1k-19" style="edgeStyle=orthogonalEdgeStyle;rounded=0;orthogonalLoop=1;jettySize=auto;html=1;" edge="1" parent="1" source="mmBqSO9s15qjNC5HCU1k-17">
          <mxGeometry relative="1" as="geometry">
            <mxPoint x="595" y="-640" as="targetPoint" />
            <Array as="points">
              <mxPoint x="590" y="-685" />
              <mxPoint x="596" y="-685" />
            </Array>
          </mxGeometry>
        </mxCell>
        <mxCell id="mmBqSO9s15qjNC5HCU1k-29" style="edgeStyle=orthogonalEdgeStyle;rounded=0;orthogonalLoop=1;jettySize=auto;html=1;" edge="1" parent="1" source="mmBqSO9s15qjNC5HCU1k-17" target="mmBqSO9s15qjNC5HCU1k-9">
          <mxGeometry relative="1" as="geometry" />
        </mxCell>
        <mxCell id="mmBqSO9s15qjNC5HCU1k-17" value="numero &amp;lt; 0?" style="rhombus;whiteSpace=wrap;html=1;" vertex="1" parent="1">
          <mxGeometry x="540" y="-810" width="100" height="80" as="geometry" />
        </mxCell>
        <mxCell id="mmBqSO9s15qjNC5HCU1k-25" value="" style="endArrow=classic;html=1;rounded=0;exitX=0.45;exitY=1.05;exitDx=0;exitDy=0;exitPerimeter=0;entryX=0;entryY=0.5;entryDx=0;entryDy=0;" edge="1" parent="1" source="mmBqSO9s15qjNC5HCU1k-11" target="mmBqSO9s15qjNC5HCU1k-12">
          <mxGeometry width="50" height="50" relative="1" as="geometry">
            <mxPoint x="390" y="-730" as="sourcePoint" />
            <mxPoint x="440" y="-780" as="targetPoint" />
            <Array as="points">
              <mxPoint x="200" y="-480" />
            </Array>
          </mxGeometry>
        </mxCell>
        <mxCell id="mmBqSO9s15qjNC5HCU1k-32" style="edgeStyle=orthogonalEdgeStyle;rounded=0;orthogonalLoop=1;jettySize=auto;html=1;" edge="1" parent="1" source="mmBqSO9s15qjNC5HCU1k-28" target="mmBqSO9s15qjNC5HCU1k-12">
          <mxGeometry relative="1" as="geometry" />
        </mxCell>
        <mxCell id="mmBqSO9s15qjNC5HCU1k-28" value="Escribir &quot;Cero&quot;" style="shape=parallelogram;perimeter=parallelogramPerimeter;whiteSpace=wrap;html=1;fixedSize=1;" vertex="1" parent="1">
          <mxGeometry x="530" y="-644" width="120" height="60" as="geometry" />
        </mxCell>
        <mxCell id="mmBqSO9s15qjNC5HCU1k-30" value="" style="endArrow=classic;html=1;rounded=0;exitX=0.5;exitY=1;exitDx=0;exitDy=0;entryX=1;entryY=0.5;entryDx=0;entryDy=0;" edge="1" parent="1" source="mmBqSO9s15qjNC5HCU1k-9" target="mmBqSO9s15qjNC5HCU1k-12">
          <mxGeometry width="50" height="50" relative="1" as="geometry">
            <mxPoint x="390" y="-730" as="sourcePoint" />
            <mxPoint x="740" y="-490" as="targetPoint" />
            <Array as="points">
              <mxPoint x="740" y="-480" />
            </Array>
          </mxGeometry>
        </mxCell>
        <mxCell id="mmBqSO9s15qjNC5HCU1k-33" value="SI" style="text;html=1;strokeColor=none;fillColor=none;align=center;verticalAlign=middle;whiteSpace=wrap;rounded=0;" vertex="1" parent="1">
          <mxGeometry x="280" y="-800" width="60" height="30" as="geometry" />
        </mxCell>
        <mxCell id="mmBqSO9s15qjNC5HCU1k-34" value="SI" style="text;html=1;strokeColor=none;fillColor=none;align=center;verticalAlign=middle;whiteSpace=wrap;rounded=0;" vertex="1" parent="1">
          <mxGeometry x="630" y="-800" width="60" height="30" as="geometry" />
        </mxCell>
        <mxCell id="mmBqSO9s15qjNC5HCU1k-35" value="No" style="text;html=1;strokeColor=none;fillColor=none;align=center;verticalAlign=middle;whiteSpace=wrap;rounded=0;" vertex="1" parent="1">
          <mxGeometry x="380" y="-770" width="60" height="30" as="geometry" />
        </mxCell>
        <mxCell id="mmBqSO9s15qjNC5HCU1k-36" value="No" style="text;html=1;strokeColor=none;fillColor=none;align=center;verticalAlign=middle;whiteSpace=wrap;rounded=0;" vertex="1" parent="1">
          <mxGeometry x="474" y="-800" width="60" height="30" as="geometry" />
        </mxCell>
        <mxCell id="mmBqSO9s15qjNC5HCU1k-37" value="No" style="text;html=1;strokeColor=none;fillColor=none;align=center;verticalAlign=middle;whiteSpace=wrap;rounded=0;" vertex="1" parent="1">
          <mxGeometry x="600" y="-690" width="60" height="30" as="geometry" />
        </mxCell>
      </root>
    </mxGraphModel>
  </diagram>
</mxfile>
